<mxfile host="app.diagrams.net" modified="2023-07-30T13:33:35.678Z" agent="Mozilla/5.0 (Windows NT 10.0; Win64; x64) AppleWebKit/537.36 (KHTML, like Gecko) Chrome/115.0.0.0 Safari/537.36" version="21.5.2" etag="K1aF5WhC803ZFx1XoiRO" type="github">
  <diagram name="第 1 页" id="59MaACrveoiojHNTDs5q">
    <mxGraphModel>
      <root>
        <mxCell id="0" />
        <mxCell id="1" parent="0" />
      </root>
    </mxGraphModel>
  </diagram>
</mxfile>
